<!--Scalable Vector Graphic-->
<svg id="Layer_1" data-name="Layer 1" xmlns="http://www.w3.org/2000/svg" xmlns:xlink="http://www.w3.org/1999/xlink" width="612" height="342" viewBox="0 0 612 342"><defs><style>.cls-1,.cls-2,.cls-3,.cls-4,.cls-5,.cls-6{opacity:0.05;}.cls-1{fill:url(#linear-gradient);}.cls-2{fill:url(#linear-gradient-2);}.cls-3{fill:url(#linear-gradient-3);}.cls-4{fill:url(#linear-gradient-4);}.cls-5{fill:url(#linear-gradient-5);}.cls-6{fill:url(#linear-gradient-6);}</style><linearGradient id="linear-gradient" x1="305.34" y1="173.71" x2="1019.24" y2="205.92" gradientUnits="userSpaceOnUse"><stop offset="0" stop-color="#fff"/><stop offset="1" stop-color="#231f20" stop-opacity="0"/></linearGradient><linearGradient id="linear-gradient-2" x1="411.23" y1="175.59" x2="1189.89" y2="210.71" xlink:href="#linear-gradient"/><linearGradient id="linear-gradient-3" x1="491.58" y1="176.64" x2="1205.48" y2="208.84" xlink:href="#linear-gradient"/><linearGradient id="linear-gradient-4" x1="302.65" y1="172.03" x2="982.06" y2="202.68" xlink:href="#linear-gradient"/><linearGradient id="linear-gradient-5" x1="406.34" y1="175.53" x2="1147.63" y2="208.97" xlink:href="#linear-gradient"/><linearGradient id="linear-gradient-6" x1="485.32" y1="177.91" x2="1164.72" y2="208.56" xlink:href="#linear-gradient"/></defs><title>angles</title><polygon class="cls-1" points="559.83 341.99 462.68 247.08 210.03 0 0 0 0 67.73 280.46 342 559.83 341.99"/><polygon class="cls-2" points="527.04 247.08 274.39 0 0 0 0 4.79 344.81 342 612 341.99 612 330.09 527.04 247.08"/><polygon class="cls-3" points="584.11 247.08 331.46 0 52.17 0 401.89 342 612 342 612 274.33 584.11 247.08"/><polygon class="cls-4" points="462.68 0 280.46 0 0 274.27 0 342 210.03 342 462.68 94.92 559.83 0.01 462.68 0"/><polygon class="cls-5" points="527.04 0 344.81 0 0 337.21 0 342 274.39 342 527.04 94.92 612 11.91 612 0.01 527.04 0"/><polygon class="cls-6" points="584.11 0 401.89 0 52.17 342 331.46 342 584.11 94.92 612 67.67 612 0 584.11 0"/></svg>