<!--Scalable Vector Graphic-->
<svg id="Layer_1" data-name="Layer 1" xmlns="http://www.w3.org/2000/svg" xmlns:xlink="http://www.w3.org/1999/xlink" viewBox="0 0 700.22 201.44"><defs><style>.cls-1,.cls-2,.cls-3,.cls-4,.cls-5,.cls-6{opacity:0.05;isolation:isolate;}.cls-1{fill:url(#linear-gradient);}.cls-2{fill:url(#linear-gradient-2);}.cls-3{fill:url(#linear-gradient-3);}.cls-4{fill:url(#linear-gradient-4);}.cls-5{fill:url(#linear-gradient-5);}.cls-6{fill:url(#linear-gradient-6);}.cls-7{fill:#95c048;}.cls-8{fill:#2a4720;}.cls-9{fill:none;}.cls-10{fill:#fff;}.cls-11{fill:#5f8e3d;}.cls-12{fill:#aacd6d;}.cls-13{fill:#408e04;}</style><linearGradient id="linear-gradient" x1="298.41" y1="98.91" x2="968.48" y2="68.68" gradientUnits="userSpaceOnUse"><stop offset="0" stop-color="#fff"/><stop offset="1" stop-color="#231f20" stop-opacity="0"/></linearGradient><linearGradient id="linear-gradient-2" x1="445.35" y1="96.85" x2="1115.3" y2="66.63" xlink:href="#linear-gradient"/><linearGradient id="linear-gradient-3" x1="575.15" y1="94.21" x2="1246.38" y2="63.93" xlink:href="#linear-gradient"/><linearGradient id="linear-gradient-4" x1="316.15" y1="97.91" x2="986.22" y2="67.68" gradientTransform="matrix(-1, 0, 0, 1, 717.96, 1)" xlink:href="#linear-gradient"/><linearGradient id="linear-gradient-5" x1="463.09" y1="95.85" x2="1133.03" y2="65.63" gradientTransform="matrix(-1, 0, 0, 1, 717.96, 1)" xlink:href="#linear-gradient"/><linearGradient id="linear-gradient-6" x1="592.88" y1="93.21" x2="1264.12" y2="62.93" gradientTransform="matrix(-1, 0, 0, 1, 717.96, 1)" xlink:href="#linear-gradient"/></defs><title>proposal-cover-image</title><polygon class="cls-1" points="548.96 199.98 547.88 198.93 344.47 0 0 0 204.5 199.98 548.96 199.98"/><polygon class="cls-2" points="629.24 200.86 627.26 198.93 424.87 1 80.4 1 284.76 200.86 629.24 200.86"/><polygon class="cls-3" points="700.22 201.44 697.65 198.93 494.75 0.5 150.28 0.5 355.75 201.44 700.22 201.44"/><polygon class="cls-4" points="151.26 199.98 152.34 198.93 355.75 0 700.22 0 495.72 199.98 151.26 199.98"/><polygon class="cls-5" points="70.98 200.86 72.96 198.93 275.35 1 619.82 1 415.46 200.86 70.98 200.86"/><polygon class="cls-6" points="0 201.44 2.57 198.93 205.47 0.5 549.94 0.5 344.47 201.44 0 201.44"/><g id="Layer_1-2" data-name="Layer 1"><rect class="cls-7" x="323.99" y="63.51" width="54.48" height="54.48" rx="9.87" ry="9.87"/><rect class="cls-7" x="323.99" y="63.51" width="54.48" height="54.48" rx="9.87" ry="9.87"/><path class="cls-8" d="M359,69.42l-2.72-1.93L353,69l-1.17.46a9.86,9.86,0,0,0-.44,2.91v34.75a9.87,9.87,0,0,0,9.87,9.87H396a9.9,9.9,0,0,0,1.82-.18l3-3-.51-3Z" transform="translate(-27.39 1)"/><rect class="cls-9" x="323.99" y="63.51" width="54.48" height="54.48" rx="9.87" ry="9.87"/><rect class="cls-9" x="323.99" y="63.51" width="54.48" height="54.48" rx="9.87" ry="9.87"/><path class="cls-10" d="M399.32,108.71a6.48,6.48,0,0,0-.78-8.18l-30.7-30.7a6.48,6.48,0,0,0-8.18-.78l-.29-.29a5.85,5.85,0,0,0-6.83-1A9.81,9.81,0,0,0,351.4,72l1.46-1.46a3.35,3.35,0,0,1,4.74,0l.29.29a6.48,6.48,0,0,0,.82,8.13l30.7,30.7a6.48,6.48,0,0,0,8.13.82l.29.29a3.35,3.35,0,0,1,0,4.74L396.37,117a9.81,9.81,0,0,0,4.27-1.14,5.85,5.85,0,0,0-1-6.83Z" transform="translate(-27.39 1)"/><polygon class="cls-11" points="341.44 117.99 348.41 117.99 357.57 108.84 354.08 105.35 341.44 117.99"/><path class="cls-11" d="M356.24,115.62a9.81,9.81,0,0,0,5,1.37h.6L378,100.86l-3.49-3.49Z" transform="translate(-27.39 1)"/><polygon class="cls-11" points="323.99 93.58 323.99 100.55 336.64 87.91 333.15 84.42 323.99 93.58"/><path class="cls-11" d="M367.52,90.39l-16.13,16.13v.6a9.81,9.81,0,0,0,1.37,5L371,93.88Z" transform="translate(-27.39 1)"/><path class="cls-10" d="M358.92,142.37a.88.88,0,0,0-.88-.69.69.69,0,0,0-.74.64s0,0,0,.07c0,.45.43.63.63.72l.59.23c.6.25.92.51.92,1.19a1.16,1.16,0,0,1-.43.89,1.52,1.52,0,0,1-.92.25,1.43,1.43,0,0,1-1.32-1l.37-.18a1.18,1.18,0,0,0,.49.65,1.15,1.15,0,0,0,.59.14.75.75,0,0,0,.8-.78.74.74,0,0,0-.44-.7l-.2-.1c-.25-.13-.53-.22-.78-.34a1.12,1.12,0,0,1-.59-.53,1.23,1.23,0,0,1-.11-.49,1,1,0,0,1,1-1.07h.18a1.26,1.26,0,0,1,1.22.85Z" transform="translate(-27.39 1)"/><path class="cls-10" d="M363.2,144.89a1.21,1.21,0,0,1-1.15.77,1.28,1.28,0,0,1-1-.44,2.5,2.5,0,0,1-.46-1.6,3.58,3.58,0,0,1,.26-1.55,1.32,1.32,0,0,1,2.26-.19,3.08,3.08,0,0,1,.38,1.62A3.23,3.23,0,0,1,363.2,144.89ZM362,141.68a.93.93,0,0,0-.84.65,3.48,3.48,0,0,0-.18,1.22,2.93,2.93,0,0,0,.22,1.23.86.86,0,0,0,1.6,0,2.79,2.79,0,0,0,.22-1.25c0-.6-.09-1.83-1-1.83Z" transform="translate(-27.39 1)"/><path class="cls-10" d="M364.75,141.42h2.57v.36h-2.14v1.48H367v.36h-1.8v1.9h-.43Z" transform="translate(-27.39 1)"/><path class="cls-10" d="M371.41,141.42v.36h-1.31v3.74h-.44v-3.74h-1.31v-.36Z" transform="translate(-27.39 1)"/><path class="cls-10" d="M377.06,141.42h.44l-1.19,4.1h-.44l-.77-2.87a3.15,3.15,0,0,0-.16-.59h0a2.89,2.89,0,0,0-.16.61l-.73,2.85h-.44l-1.2-4.1h.43l.79,2.83a3.75,3.75,0,0,0,.19.64h0a3.6,3.6,0,0,0,.18-.69l.72-2.78h.44l.75,2.81a3.54,3.54,0,0,0,.17.65h0a3.28,3.28,0,0,0,.2-.7Z" transform="translate(-27.39 1)"/><path class="cls-10" d="M378,145.52l1.59-4.16H380l1.58,4.16h-.46l-.37-1h-1.94l-.37,1Zm2.65-1.35-.82-2.22,0,0s0,0,0,0l-.83,2.21Z" transform="translate(-27.39 1)"/><path class="cls-10" d="M382.77,141.42h1.34a1.3,1.3,0,0,1,1,.31,1,1,0,0,1,.3.8,1.06,1.06,0,0,1-1,1.13h-.15l1.29,1.85h-.52l-1.19-1.82h-.71v1.82h-.43Zm1.12,1.91c.41,0,1.1,0,1.1-.78s-.54-.77-.92-.77h-.88v1.54Z" transform="translate(-27.39 1)"/><path class="cls-10" d="M386.89,141.42h2.59v.36h-2.16v1.39h1.86v.38h-1.86v1.6h2.23v.37h-2.65Z" transform="translate(-27.39 1)"/><path class="cls-10" d="M392.35,145.28h.45v-3.62h-.45v-.24h1.33v.24h-.45v3.62h.45v.24h-1.33Z" transform="translate(-27.39 1)"/><path class="cls-10" d="M395.76,141.42l1.07,2.6c.1.24.23.64.33.88s.08.24.14.24,0,0,0-.09v-3.63h.41v4.1H397l-1.14-2.78-.26-.66c-.07-.18-.09-.28-.13-.28a.05.05,0,0,0,0,.06v3.67H395v-4.1Z" transform="translate(-27.39 1)"/><path class="cls-10" d="M401.51,142.6c0-.53-.33-.93-.86-.93-1,0-1.09,1.49-1.09,1.85s0,1.8,1.07,1.8c.64,0,.86-.55.93-1l.37.11a1.3,1.3,0,0,1-1.29,1.23,1.27,1.27,0,0,1-1.12-.56,2.49,2.49,0,0,1-.38-1.43,3.35,3.35,0,0,1,.33-1.62,1.31,1.31,0,0,1,1.23-.72,1.17,1.17,0,0,1,1.17,1.14Z" transform="translate(-27.39 1)"/><path class="cls-10" d="M403,145.2a.38.38,0,0,1,.37-.37.38.38,0,0,1,.38.37.37.37,0,0,1-.75,0Z" transform="translate(-27.39 1)"/><path class="cls-10" d="M342,125.54h4.85c1.91,0,3.29.43,3.29,2.41a2.29,2.29,0,0,1-2.19,2.37h-.06l2.48,3.29h-1.94l-2.34-3.18h-2.5v3.18H342Zm4.62,3.59c1.29,0,1.94-.19,1.94-1.14s-.66-1.13-1.94-1.13h-3v2.28Z" transform="translate(-27.39 1)"/><path class="cls-10" d="M352.11,125.54h7.24v1.36h-5.66v1.88h4.87v1.36h-4.87v2.13h5.8v1.35h-7.37Z" transform="translate(-27.39 1)"/><path class="cls-10" d="M367.41,128c-.26-.72-.91-1.34-2.83-1.34-1.07,0-2.14.27-2.14,1,0,.34.2.71,1.81.91l1.91.29c1.81.28,2.88,1,2.88,2.33,0,1.91-1.82,2.62-4,2.62-3.46,0-4.31-1.71-4.5-2.32l1.52-.48c.29.59.89,1.44,3,1.44,1.29,0,2.35-.42,2.35-1.12,0-.52-.6-.87-1.75-1l-1.93-.27c-1.87-.26-2.91-1.07-2.91-2.3,0-2.42,3.14-2.42,3.76-2.42,3.47,0,4.07,1.61,4.27,2.17Z" transform="translate(-27.39 1)"/><path class="cls-10" d="M370.83,125.54h1.58v8.07h-1.58Z" transform="translate(-27.39 1)"/><path class="cls-10" d="M381,128c-.26-.72-.91-1.34-2.83-1.34-1.07,0-2.14.27-2.14,1,0,.34.2.71,1.81.91l1.91.29c1.81.28,2.88,1,2.88,2.33,0,1.91-1.82,2.62-4,2.62-3.46,0-4.31-1.71-4.5-2.32l1.52-.48c.29.59.89,1.44,3,1.44,1.29,0,2.35-.42,2.35-1.12,0-.52-.6-.87-1.75-1l-1.93-.27c-1.87-.26-2.91-1.07-2.91-2.3,0-2.42,3.14-2.42,3.76-2.42,3.47,0,4.07,1.61,4.27,2.17Z" transform="translate(-27.39 1)"/><path class="cls-10" d="M387.22,126.9h-3.61v-1.36h8.8v1.36h-3.61v6.72h-1.58Z" transform="translate(-27.39 1)"/><path class="cls-10" d="M398,125.34c3.55,0,4.81,2.09,4.81,4.3,0,1.68-1,4.17-4.81,4.17s-4.81-2.5-4.81-4.18C393.24,127.43,394.49,125.34,398,125.34Zm3.23,4.21c0-1.94-1.39-2.85-3.23-2.85s-3.23.91-3.23,2.85c0,2.29,1.72,2.91,3.23,2.91S401.28,131.84,401.28,129.55Z" transform="translate(-27.39 1)"/><path class="cls-10" d="M404.62,125.54h4.85c1.91,0,3.29.43,3.29,2.41a2.29,2.29,0,0,1-2.19,2.37h-.06l2.48,3.29H411l-2.34-3.18h-2.5v3.18h-1.58Zm4.62,3.59c1.29,0,1.94-.19,1.94-1.14s-.66-1.13-1.94-1.13h-3v2.28Z" transform="translate(-27.39 1)"/><rect class="cls-12" x="361.7" y="76.82" width="12.91" height="4.93" transform="translate(24.38 284.55) rotate(-45)"/><rect class="cls-11" x="368.68" y="83.8" width="12.91" height="4.93" transform="translate(21.49 291.53) rotate(-45)"/><rect class="cls-11" x="375.65" y="90.77" width="12.91" height="4.93" transform="translate(18.6 298.5) rotate(-45)"/><rect class="cls-12" x="382.63" y="97.75" width="12.91" height="4.93" transform="translate(15.71 305.48) rotate(-45)"/><rect class="cls-7" x="362.65" y="79.12" width="6.41" height="4.93" transform="translate(22.08 283.6) rotate(-45)"/><rect class="cls-7" x="369.63" y="86.1" width="6.41" height="4.93" transform="translate(19.19 290.57) rotate(-45)"/><rect class="cls-7" x="376.61" y="93.07" width="6.41" height="4.93" transform="translate(16.3 297.55) rotate(-45)"/><rect class="cls-7" x="383.58" y="100.05" width="6.41" height="4.93" transform="translate(13.41 304.53) rotate(-45)"/><rect class="cls-13" x="394.11" y="89.82" width="4.93" height="4.93" transform="translate(23.51 308.45) rotate(-45)"/><rect class="cls-10" x="397.6" y="86.33" width="4.93" height="4.93" transform="translate(26.99 309.9) rotate(-45)"/><rect class="cls-13" x="390.89" y="80.39" width="4.93" height="4.93" transform="translate(29.24 303.42) rotate(-45)"/><rect class="cls-10" x="394.38" y="76.9" width="4.93" height="4.93" transform="translate(32.73 304.86) rotate(-45)"/><rect class="cls-13" x="393.33" y="69.74" width="4.93" height="4.93" transform="translate(37.48 302.02) rotate(-45)"/><rect class="cls-10" x="396.82" y="66.26" width="4.93" height="4.93" transform="translate(40.96 303.46) rotate(-45)"/><rect class="cls-13" x="372.14" y="70.49" width="4.93" height="4.93" transform="translate(30.74 287.26) rotate(-45)"/><rect class="cls-10" x="375.63" y="67" width="4.93" height="4.93" transform="translate(34.23 288.7) rotate(-45)"/><rect class="cls-13" x="381.57" y="74.65" width="4.93" height="4.93" transform="translate(30.56 295.14) rotate(-45)"/><rect class="cls-10" x="385.06" y="71.16" width="4.93" height="4.93" transform="translate(34.05 296.59) rotate(-45)"/></g></svg>