<?xml version="1.0" encoding="UTF-8"?>
<svg width="80px" height="71px" viewBox="0 0 80 71" version="1.1" xmlns="http://www.w3.org/2000/svg" xmlns:xlink="http://www.w3.org/1999/xlink">
    <!-- Generator: Sketch 48.2 (47327) - http://www.bohemiancoding.com/sketch -->
    <title>Untitled</title>
    <desc>Created with Sketch.</desc>
    <defs></defs>
    <g id="Page-1" stroke="none" stroke-width="1" fill="none" fill-rule="evenodd">
        <g id="rs-pattern" fill-rule="nonzero">
            <rect id="Rectangle-path" fill="#95C048" x="0" y="0" width="80" height="71"></rect>
            <path d="M25.5198416,11 L2.47029704,11 C1.10598966,11 0,9.86592495 0,8.46697248 L0,2.53302752 C0,1.13407505 1.10598966,0 2.47029704,0 L25.5296834,0 C26.8917501,0.00553137146 27.9945861,1.13637264 27.9999804,2.53302752 L27.9999804,8.44678899 C28.0025974,9.12301298 27.7424536,9.77246093 27.2770534,10.2515732 C26.8116532,10.7306855 26.1793241,11.0000053 25.5198416,11 Z M2.46045522,1.0293578 C1.6396966,1.0293578 0.974340269,1.71161012 0.974340269,2.55321101 L0.974340269,8.46697248 C0.974340269,9.30857337 1.6396966,9.99082569 2.46045522,9.99082569 L25.5198416,9.99082569 C26.3406002,9.99082569 27.0059565,9.30857337 27.0059565,8.46697248 L27.0059565,2.53302752 C27.0059565,1.69142663 26.3406002,1.00917431 25.5198416,1.00917431 L2.46045522,1.0293578 Z" id="Shape" fill="#82A83F"></path>
            <polygon id="Shape" fill="#82A83F" points="34.5 5 28 5 28 6 34.5 6 41 6 41 5"></polygon>
            <path d="M65.5198416,11 L42.470297,11 C41.1082303,10.9944686 40.0053944,9.86362736 40,8.46697248 L40,2.53302752 C40.0053944,1.13637264 41.1082303,0.00553137146 42.470297,0 L65.5198416,0 C66.8857502,-1.10276503e-05 67.9945602,1.13244421 67.9999804,2.53302752 L67.9999804,8.44678899 C68.0025974,9.12301298 67.7424536,9.77246093 67.2770534,10.2515732 C66.8116532,10.7306855 66.1793241,11.0000053 65.5198416,11 Z M42.470297,1.0293578 C41.6495384,1.0293578 40.9841821,1.71161012 40.9841821,2.55321101 L40.9841821,8.46697248 C40.9841821,9.30857337 41.6495384,9.99082569 42.470297,9.99082569 L65.5198416,9.99082569 C66.3406002,9.99082569 67.0059565,9.30857337 67.0059565,8.46697248 L67.0059565,2.53302752 C67.0059565,1.69142663 66.3406002,1.00917431 65.5198416,1.00917431 L42.470297,1.0293578 Z" id="Shape" fill="#82A83F"></path>
            <polygon id="Shape" fill="#82A83F" points="74.2833471 5 68 5 68 6 74.2833471 6 80 6 80 5"></polygon>
            <polygon id="Shape" fill="#82A83F" points="14.5 20 8 20 8 21 14.5 21 21 21 21 20"></polygon>
            <path d="M45.5198594,26 L22.4702988,26 C21.1082311,25.9944534 20.0053944,24.8604911 20,23.4599816 L20,17.5400184 C20.0053944,16.1395089 21.1082311,15.0055466 22.4702988,15 L45.5297012,15 C46.8917689,15.0055466 47.9946056,16.1395089 48,17.5400184 L48,23.4599816 C47.9945797,24.8644304 46.8857689,26.0000111 45.5198594,26 Z M22.4604569,16.0018399 C21.6396977,16.0018399 20.9743409,16.6859752 20.9743409,17.5298988 L20.9743409,23.449862 C20.9743409,24.2937856 21.6396977,24.9779209 22.4604569,24.9779209 L45.5198594,24.9779209 C46.3406186,24.9779209 47.0059754,24.2937856 47.0059754,23.449862 L47.0059754,17.5298988 C47.0059754,16.6859752 46.3406186,16.0018399 45.5198594,16.0018399 L22.4604569,16.0018399 Z" id="Shape" fill="#82A83F"></path>
            <polygon id="Shape" fill="#82A83F" points="54.5 20 48 20 48 21 54.5 21 61 21 61 20"></polygon>
            <path d="M25.5198594,39 L2.47029877,39 C1.10823112,38.9944585 0.0053943907,37.8615384 0,36.4623162 L0,30.5376838 C2.79721569e-14,29.1361597 1.10599043,28 2.47029877,28 L25.5297012,28 C26.8917689,28.0055415 27.9946056,29.1384616 28,30.5376838 L28,36.4623162 C27.9945797,37.8654741 26.8857689,39.000011 25.5198594,39 Z M2.46045694,29.0110294 C1.63969774,29.0110294 0.974340949,29.6945359 0.974340949,30.5376838 L0.974340949,36.4623162 C0.974340949,37.3054641 1.63969774,37.9889706 2.46045694,37.9889706 L25.5198594,37.9889706 C26.3406186,37.9889706 27.0059754,37.3054641 27.0059754,36.4623162 L27.0059754,30.5376838 C27.0059754,29.6945359 26.3406186,29.0110294 25.5198594,29.0110294 L2.46045694,29.0110294 Z" id="Shape" fill="#82A83F"></path>
            <polygon id="Shape" fill="#82A83F" points="34.5 33 28 33 28 34 34.5 34 41 34 41 33"></polygon>
            <path d="M65.5288326,39 L42.4711674,39 C41.1086208,38.9944585 40.0053963,37.8615384 40,36.4623162 L40,30.5376838 C40.0053963,29.1384616 41.1086208,28.0055415 42.4711674,28 L65.5288326,28 C66.8913792,28.0055415 67.9946037,29.1384616 68,30.5376838 L68,36.4623162 C67.9946037,37.8615384 66.8913792,38.9944585 65.5288326,39 Z M42.4711674,29.0110294 C41.6501196,29.0110294 40.9845288,29.6945359 40.9845288,30.5376838 L40.9845288,36.4623162 C40.9845288,37.3054641 41.6501196,37.9889706 42.4711674,37.9889706 L65.5288326,37.9889706 C66.3498804,37.9889706 67.0154712,37.3054641 67.0154712,36.4623162 L67.0154712,30.5376838 C67.0154712,29.6945359 66.3498804,29.0110294 65.5288326,29.0110294 L42.4711674,29.0110294 Z" id="Shape" fill="#82A83F"></path>
            <polygon id="Shape" fill="#82A83F" points="74.2833471 33 68 33 68 34 74.2833471 34 80 34 80 33"></polygon>
            <polygon id="Shape" fill="#82A83F" points="14.5 48 8 48 8 49 14.5 49 21 49 21 48"></polygon>
            <path d="M45.5198594,54 L22.4702988,54 C21.1059904,54 20,52.8638403 20,51.4623162 L20,45.5376838 C20.0053944,44.1384616 21.1082311,43.0055415 22.4702988,43 L45.5297012,43 C46.8917689,43.0055415 47.9946056,44.1384616 48,45.5376838 L48,51.4623162 C47.9945797,52.8654741 46.8857689,54.000011 45.5198594,54 Z M22.4604569,44.0110294 C21.6396977,44.0110294 20.9743409,44.6945359 20.9743409,45.5376838 L20.9743409,51.4623162 C20.9743409,52.3054641 21.6396977,52.9889706 22.4604569,52.9889706 L45.5198594,52.9889706 C46.3406186,52.9889706 47.0059754,52.3054641 47.0059754,51.4623162 L47.0059754,45.5376838 C47.0059754,44.6945359 46.3406186,44.0110294 45.5198594,44.0110294 L22.4604569,44.0110294 Z" id="Shape" fill="#82A83F"></path>
            <polygon id="Shape" fill="#82A83F" points="54.5 48 48 48 48 49 54.5 49 61 49 61 48"></polygon>
            <path d="M25.5198594,68 L2.47029877,68 C1.10823112,67.9944534 0.0053943907,66.8604911 0,65.4599816 L0,59.5400184 C0.0053943907,58.1395089 1.10823112,57.0055466 2.47029877,57 L25.5297012,57 C26.8917689,57.0055466 27.9946056,58.1395089 28,59.5400184 L28,65.4599816 C27.9945797,66.8644304 26.8857689,68.0000111 25.5198594,68 Z M2.46045694,58.0018399 C1.63969774,58.0018399 0.974340949,58.6859752 0.974340949,59.5298988 L0.974340949,65.449862 C0.974340949,66.2937856 1.63969774,66.9779209 2.46045694,66.9779209 L25.5198594,66.9779209 C26.3406186,66.9779209 27.0059754,66.2937856 27.0059754,65.449862 L27.0059754,59.5298988 C27.0059754,58.6859752 26.3406186,58.0018399 25.5198594,58.0018399 L2.46045694,58.0018399 Z" id="Shape" fill="#82A83F"></path>
            <polygon id="Shape" fill="#82A83F" points="34.5 62 28 62 28 63 34.5 63 41 63 41 62"></polygon>
            <path d="M65.5288326,68 L42.4711674,68 C41.1086208,67.9944534 40.0053963,66.8604911 40,65.4599816 L40,59.5400184 C40.0053963,58.1395089 41.1086208,57.0055466 42.4711674,57 L65.5288326,57 C66.8913792,57.0055466 67.9946037,58.1395089 68,59.5400184 L68,65.4599816 C67.9946037,66.8604911 66.8913792,67.9944534 65.5288326,68 Z M42.4711674,58.0018399 C41.6501196,58.0018399 40.9845288,58.6859752 40.9845288,59.5298988 L40.9845288,65.449862 C40.9845288,66.2937856 41.6501196,66.9779209 42.4711674,66.9779209 L65.5288326,66.9779209 C66.3498804,66.9779209 67.0154712,66.2937856 67.0154712,65.449862 L67.0154712,59.5298988 C67.0154712,58.6859752 66.3498804,58.0018399 65.5288326,58.0018399 L42.4711674,58.0018399 Z" id="Shape" fill="#82A83F"></path>
            <polygon id="Shape" fill="#82A83F" points="74.2833471 62 68 62 68 63 74.2833471 63 80 63 80 62"></polygon>
            <path d="M5.62085308,15 L0,15 L0,16.0119595 L5.62085308,16.0119595 C6.41132699,16.0119595 7.0521327,16.6960948 7.0521327,17.5400184 L7.0521327,23.4599816 C7.0521327,24.3039052 6.41132699,24.9880405 5.62085308,24.9880405 L5.38800179e-14,24.9880405 L0,26 L5.62085308,26 C6.93266163,25.9944534 7.99480466,24.8604911 8,23.4599816 L8,17.5400184 C7.99480466,16.1395089 6.93266163,15.0055466 5.62085308,15 Z" id="Shape" fill="#82A83F"></path>
            <path d="M5.62085308,43 L0,43 L0,44.0110294 L5.62085308,44.0110294 C6.41132699,44.0110294 7.0521327,44.6945359 7.0521327,45.5376838 L7.0521327,51.4623162 C7.0521327,52.3054641 6.41132699,52.9889706 5.62085308,52.9889706 L5.38800179e-14,52.9889706 L0,54 L5.62085308,54 C6.93266163,53.9944585 7.99480466,52.8615384 8,51.4623162 L8,45.5477941 C8.00001036,44.1446252 6.93635141,43.0055681 5.62085308,43 Z" id="Shape" fill="#82A83F"></path>
            <path d="M80,24.9880405 L62.5087456,24.9880405 C61.6752124,24.9880405 60.9995002,24.3039052 60.9995002,23.4599816 L60.9995002,17.5400184 C60.9995002,16.6960948 61.6752124,16.0119595 62.5087456,16.0119595 L80,16.0119595 L80,15 L62.5087456,15 C61.1254792,15.0055466 60.0054783,16.1395089 60,17.5400184 L60,23.4599816 C60.0054783,24.8604911 61.1254792,25.9944534 62.5087456,26 L80,26 L80,24.9880405 Z" id="Shape" fill="#82A83F"></path>
            <path d="M80,52.9889706 L62.5087456,52.9889706 C61.6791184,52.9834129 61.0094771,52.3015315 61.0094953,51.4623162 L61.0094953,45.5376838 C61.0094953,44.6945359 61.6852074,44.0110294 62.5187406,44.0110294 L80,44.0110294 L80,43 L62.5087456,43 C61.1254792,43.0055415 60.0054783,44.1384616 60,45.5376838 L60,51.4623162 C60.0054783,52.8615384 61.1254792,53.9944585 62.5087456,54 L80,54 L80,52.9889706 Z" id="Shape" fill="#82A83F"></path>
        </g>
    </g>
</svg>