<!--Scalable Vector Graphic-->
<svg id="Layer_1" data-name="Layer 1" xmlns="http://www.w3.org/2000/svg" width="80px" height="72px" viewBox="0 0 80 72"><defs><style>.cls-1{fill:#fff;}.cls-2{fill:#bbd78a;}</style></defs><title>rs-pattern-white</title><rect class="cls-1" width="80" height="72"/><path class="cls-2" d="M280.87,419.21H257.46a2.52,2.52,0,0,1-2.51-2.53v-5.9a2.52,2.52,0,0,1,2.51-2.53h23.41a2.52,2.52,0,0,1,2.51,2.53v5.9A2.52,2.52,0,0,1,280.87,419.21Zm-23.41-9.95a1.52,1.52,0,0,0-1.51,1.52v5.9a1.52,1.52,0,0,0,1.51,1.52h23.41a1.52,1.52,0,0,0,1.51-1.52v-5.9a1.52,1.52,0,0,0-1.51-1.52Z" transform="translate(-254.95 -408.25)"/><polygon class="cls-2" points="34.25 4.98 27.93 4.98 27.93 5.99 34.25 5.99 40.57 5.99 40.57 4.98 34.25 4.98"/><path class="cls-2" d="M320.87,419.21H297.46a2.52,2.52,0,0,1-2.51-2.53v-5.9a2.52,2.52,0,0,1,2.51-2.53h23.41a2.52,2.52,0,0,1,2.51,2.53v5.9A2.52,2.52,0,0,1,320.87,419.21Zm-23.41-9.95a1.52,1.52,0,0,0-1.51,1.52v5.9a1.52,1.52,0,0,0,1.51,1.52h23.41a1.52,1.52,0,0,0,1.51-1.52v-5.9a1.52,1.52,0,0,0-1.51-1.52Z" transform="translate(-254.95 -408.25)"/><polygon class="cls-2" points="74.25 4.98 67.94 4.98 67.94 5.99 74.25 5.99 80 5.99 80 4.98 74.25 4.98"/><polygon class="cls-2" points="14.25 19.83 7.93 19.83 7.93 20.84 14.25 20.84 20.57 20.84 20.57 19.83 14.25 19.83"/><path class="cls-2" d="M300.87,434.06H277.46a2.52,2.52,0,0,1-2.51-2.53v-5.9a2.52,2.52,0,0,1,2.51-2.53h23.41a2.52,2.52,0,0,1,2.51,2.53v5.9A2.52,2.52,0,0,1,300.87,434.06Zm-23.41-10a1.52,1.52,0,0,0-1.51,1.52v5.9a1.52,1.52,0,0,0,1.51,1.52h23.41a1.52,1.52,0,0,0,1.51-1.52v-5.9a1.52,1.52,0,0,0-1.51-1.52Z" transform="translate(-254.95 -408.25)"/><polygon class="cls-2" points="54.25 19.83 47.94 19.83 47.94 20.84 54.25 20.84 60.57 20.84 60.57 19.83 54.25 19.83"/><path class="cls-2" d="M280.87,447.79H257.46a2.52,2.52,0,0,1-2.51-2.53v-5.9a2.52,2.52,0,0,1,2.51-2.53h23.41a2.52,2.52,0,0,1,2.51,2.53v5.9A2.52,2.52,0,0,1,280.87,447.79Zm-23.41-10a1.52,1.52,0,0,0-1.51,1.52v5.9a1.52,1.52,0,0,0,1.51,1.52h23.41a1.52,1.52,0,0,0,1.51-1.52v-5.9a1.52,1.52,0,0,0-1.51-1.52Z" transform="translate(-254.95 -408.25)"/><polygon class="cls-2" points="34.25 33.55 27.93 33.55 27.93 34.56 34.25 34.56 40.57 34.56 40.57 33.55 34.25 33.55"/><path class="cls-2" d="M320.87,447.79H297.46a2.52,2.52,0,0,1-2.51-2.53v-5.9a2.52,2.52,0,0,1,2.51-2.53h23.41a2.52,2.52,0,0,1,2.51,2.53v5.9A2.52,2.52,0,0,1,320.87,447.79Zm-23.41-10a1.52,1.52,0,0,0-1.51,1.52v5.9a1.52,1.52,0,0,0,1.51,1.52h23.41a1.52,1.52,0,0,0,1.51-1.52v-5.9a1.52,1.52,0,0,0-1.51-1.52Z" transform="translate(-254.95 -408.25)"/><polygon class="cls-2" points="74.25 33.55 67.94 33.55 67.94 34.56 74.25 34.56 80 34.56 80 33.55 74.25 33.55"/><polygon class="cls-2" points="14.25 48.4 7.93 48.4 7.93 49.41 14.25 49.41 20.57 49.41 20.57 48.4 14.25 48.4"/><path class="cls-2" d="M300.87,462.64H277.46a2.52,2.52,0,0,1-2.51-2.53v-5.9a2.52,2.52,0,0,1,2.51-2.53h23.41a2.52,2.52,0,0,1,2.51,2.53v5.9A2.52,2.52,0,0,1,300.87,462.64Zm-23.41-10a1.52,1.52,0,0,0-1.51,1.52v5.9a1.52,1.52,0,0,0,1.51,1.52h23.41a1.52,1.52,0,0,0,1.51-1.52v-5.9a1.52,1.52,0,0,0-1.51-1.52Z" transform="translate(-254.95 -408.25)"/><polygon class="cls-2" points="54.25 48.4 47.94 48.4 47.94 49.41 54.25 49.41 60.57 49.41 60.57 48.4 54.25 48.4"/><path class="cls-2" d="M280.87,476.36H257.46a2.52,2.52,0,0,1-2.51-2.53v-5.9a2.52,2.52,0,0,1,2.51-2.53h23.41a2.52,2.52,0,0,1,2.51,2.53v5.9A2.52,2.52,0,0,1,280.87,476.36Zm-23.41-10a1.52,1.52,0,0,0-1.51,1.52v5.9a1.52,1.52,0,0,0,1.51,1.52h23.41a1.52,1.52,0,0,0,1.51-1.52v-5.9a1.52,1.52,0,0,0-1.51-1.52Z" transform="translate(-254.95 -408.25)"/><polygon class="cls-2" points="34.25 62.12 27.93 62.12 27.93 63.13 34.25 63.13 40.57 63.13 40.57 62.12 34.25 62.12"/><path class="cls-2" d="M320.87,476.36H297.46a2.52,2.52,0,0,1-2.51-2.53v-5.9a2.52,2.52,0,0,1,2.51-2.53h23.41a2.52,2.52,0,0,1,2.51,2.53v5.9A2.52,2.52,0,0,1,320.87,476.36Zm-23.41-10a1.52,1.52,0,0,0-1.51,1.52v5.9a1.52,1.52,0,0,0,1.51,1.52h23.41a1.52,1.52,0,0,0,1.51-1.52v-5.9a1.52,1.52,0,0,0-1.51-1.52Z" transform="translate(-254.95 -408.25)"/><polygon class="cls-2" points="74.25 62.12 67.94 62.12 67.94 63.13 74.25 63.13 80 63.13 80 62.12 74.25 62.12"/><path class="cls-2" d="M260.87,423.11h-5.92v1h5.92a1.52,1.52,0,0,1,1.51,1.52v5.9a1.52,1.52,0,0,1-1.51,1.52h-5.92v1h5.92a2.52,2.52,0,0,0,2.51-2.53v-5.9A2.52,2.52,0,0,0,260.87,423.11Z" transform="translate(-254.95 -408.25)"/><path class="cls-2" d="M260.87,451.68h-5.92v1h5.92a1.52,1.52,0,0,1,1.51,1.52v5.9a1.52,1.52,0,0,1-1.51,1.52h-5.92v1h5.92a2.52,2.52,0,0,0,2.51-2.53v-5.9A2.52,2.52,0,0,0,260.87,451.68Z" transform="translate(-254.95 -408.25)"/><path class="cls-2" d="M334.95,433.06H317.46a1.52,1.52,0,0,1-1.51-1.52v-5.9a1.52,1.52,0,0,1,1.51-1.52h17.49v-1H317.46a2.52,2.52,0,0,0-2.51,2.53v5.9a2.52,2.52,0,0,0,2.51,2.53h17.49Z" transform="translate(-254.95 -408.25)"/><path class="cls-2" d="M334.95,461.63H317.46a1.52,1.52,0,0,1-1.51-1.52v-5.9a1.52,1.52,0,0,1,1.51-1.52h17.49v-1H317.46a2.52,2.52,0,0,0-2.51,2.53v5.9a2.52,2.52,0,0,0,2.51,2.53h17.49Z" transform="translate(-254.95 -408.25)"/></svg>