<!--Scalable Vector Graphic-->
<svg id="Layer_1" data-name="Layer 1" xmlns="http://www.w3.org/2000/svg" xmlns:xlink="http://www.w3.org/1999/xlink" viewBox="0 0 354.56 102"><defs><style>.cls-1,.cls-2,.cls-3,.cls-4,.cls-5,.cls-6{opacity:0.05;isolation:isolate;}.cls-1{fill:url(#linear-gradient);}.cls-2{fill:url(#linear-gradient-2);}.cls-3{fill:url(#linear-gradient-3);}.cls-4{fill:url(#linear-gradient-4);}.cls-5{fill:url(#linear-gradient-5);}.cls-6{fill:url(#linear-gradient-6);}.cls-7{fill:#95c048;}.cls-8{fill:#2a4720;}.cls-9{fill:none;}.cls-10{fill:#fff;}.cls-11{fill:#5f8e3d;}.cls-12{fill:#aacd6d;}.cls-13{fill:#408e04;}</style><linearGradient id="linear-gradient" x1="323.93" y1="-46.99" x2="663.22" y2="-31.68" gradientTransform="matrix(1, 0, 0, -1, -172.83, 3.09)" gradientUnits="userSpaceOnUse"><stop offset="0" stop-color="#fff"/><stop offset="1" stop-color="#231f20" stop-opacity="0"/></linearGradient><linearGradient id="linear-gradient-2" x1="398.34" y1="-45.94" x2="737.57" y2="-30.64" xlink:href="#linear-gradient"/><linearGradient id="linear-gradient-3" x1="464.06" y1="-44.61" x2="803.94" y2="-29.28" xlink:href="#linear-gradient"/><linearGradient id="linear-gradient-4" x1="287.67" y1="-45.99" x2="626.96" y2="-30.68" gradientTransform="translate(491.13 4.09) rotate(180)" xlink:href="#linear-gradient"/><linearGradient id="linear-gradient-5" x1="362.08" y1="-44.94" x2="701.3" y2="-29.64" gradientTransform="translate(491.13 4.09) rotate(180)" xlink:href="#linear-gradient"/><linearGradient id="linear-gradient-6" x1="427.79" y1="-43.61" x2="767.68" y2="-28.28" gradientTransform="translate(491.13 4.09) rotate(180)" xlink:href="#linear-gradient"/></defs><title>proposal-header-image</title><polygon class="cls-1" points="277.97 101.26 277.42 100.73 174.42 0 0 0 103.55 101.26 277.97 101.26"/><polygon class="cls-2" points="318.62 101.71 317.62 100.73 215.13 0.51 40.71 0.51 144.19 101.71 318.62 101.71"/><polygon class="cls-3" points="354.56 102 353.26 100.73 250.52 0.25 76.09 0.25 180.14 102 354.56 102"/><polygon class="cls-4" points="76.59 101.26 77.14 100.73 180.14 0 354.56 0 251.01 101.26 76.59 101.26"/><polygon class="cls-5" points="35.94 101.71 36.94 100.73 139.43 0.51 313.85 0.51 210.37 101.71 35.94 101.71"/><polygon class="cls-6" points="0 102 1.3 100.73 104.04 0.25 278.46 0.25 174.42 102 0 102"/><g id="Layer_1-2" data-name="Layer 1-2"><rect class="cls-7" x="164.06" y="32.16" width="27.59" height="27.59" rx="5" ry="5"/><rect class="cls-7" x="164.06" y="32.16" width="27.59" height="27.59" rx="5" ry="5"/><path class="cls-8" d="M340.74,34.75l-1.38-1-1.66.76-.59.23a5,5,0,0,0-.22,1.47v17.6a5,5,0,0,0,5,5h17.59a5,5,0,0,0,.92-.09l1.52-1.52-.26-1.52Z" transform="translate(-172.83 0.91)"/><rect class="cls-9" x="164.06" y="32.16" width="27.59" height="27.59" rx="5" ry="5"/><rect class="cls-9" x="164.06" y="32.16" width="27.59" height="27.59" rx="5" ry="5"/><path class="cls-10" d="M361.16,54.65a3.28,3.28,0,0,0-.39-4.14L345.22,35a3.28,3.28,0,0,0-4.14-.39l-.15-.15a3,3,0,0,0-3.46-.51,5,5,0,0,0-.58,2.15l.74-.74a1.7,1.7,0,0,1,2.4,0h0l.15.15a3.28,3.28,0,0,0,.42,4.12l15.55,15.55a3.28,3.28,0,0,0,4.12.42l.15.15a1.7,1.7,0,0,1,0,2.4h0l-.74.75a5,5,0,0,0,2.16-.58,3,3,0,0,0-.51-3.46Z" transform="translate(-172.83 0.91)"/><polygon class="cls-11" points="172.89 59.74 176.42 59.74 181.06 55.11 179.29 53.34 172.89 59.74"/><path class="cls-11" d="M339.35,58.15a5,5,0,0,0,2.53.69h.3l8.18-8.17-1.77-1.77Z" transform="translate(-172.83 0.91)"/><polygon class="cls-11" points="164.06 47.38 164.06 50.91 170.46 44.51 168.69 42.75 164.06 47.38"/><path class="cls-11" d="M345.06,45.37l-8.17,8.17v.3a5,5,0,0,0,.69,2.53l9.24-9.24Z" transform="translate(-172.83 0.91)"/><path class="cls-10" d="M340.7,71.69a.45.45,0,0,0-.45-.35.35.35,0,0,0-.37.32h0v0c0,.23.22.32.32.36l.3.12c.3.13.47.26.47.6a.59.59,0,0,1-.22.45.77.77,0,0,1-.47.13.72.72,0,0,1-.67-.51l.19-.09a.6.6,0,0,0,.25.33.58.58,0,0,0,.3.07.38.38,0,0,0,.41-.39.37.37,0,0,0-.22-.35l-.1-.05c-.13-.07-.27-.11-.39-.17a.57.57,0,0,1-.3-.27.62.62,0,0,1-.06-.25.51.51,0,0,1,.47-.54h.13a.64.64,0,0,1,.62.43Z" transform="translate(-172.83 0.91)"/><path class="cls-10" d="M342.87,73a.61.61,0,0,1-.58.39.65.65,0,0,1-.51-.22,1.27,1.27,0,0,1-.23-.81,1.81,1.81,0,0,1,.13-.78.67.67,0,0,1,1.14-.1,1.56,1.56,0,0,1,.19.82A1.64,1.64,0,0,1,342.87,73Zm-.61-1.63a.47.47,0,0,0-.43.33,1.76,1.76,0,0,0-.09.62,1.48,1.48,0,0,0,.11.62.44.44,0,0,0,.81,0,1.41,1.41,0,0,0,.11-.63c0-.3,0-.93-.51-.93Z" transform="translate(-172.83 0.91)"/><path class="cls-10" d="M343.66,71.21H345v.18h-1.08v.75h.92v.18h-.91v1h-.22Z" transform="translate(-172.83 0.91)"/><path class="cls-10" d="M347,71.21v.18h-.66v1.89h-.22V71.39h-.66v-.18Z" transform="translate(-172.83 0.91)"/><path class="cls-10" d="M349.89,71.21h.22l-.6,2.08h-.22l-.39-1.45a1.6,1.6,0,0,0-.08-.3h0a1.46,1.46,0,0,0-.08.31l-.37,1.44h-.22l-.61-2.08h.22l.4,1.43a1.9,1.9,0,0,0,.1.32h0a1.82,1.82,0,0,0,.09-.35l.36-1.41h.22l.38,1.42a1.79,1.79,0,0,0,.09.33h0a1.66,1.66,0,0,0,.1-.35Z" transform="translate(-172.83 0.91)"/><path class="cls-10" d="M350.37,73.29l.81-2.11h.21l.8,2.11h-.23l-.19-.51h-1l-.19.51Zm1.34-.68-.42-1.12h0l-.42,1.12Z" transform="translate(-172.83 0.91)"/><path class="cls-10" d="M352.78,71.21h.68a.66.66,0,0,1,.51.16.51.51,0,0,1,.15.41.54.54,0,0,1-.5.57h-.08l.65.94h-.26l-.6-.92H353v.92h-.22Zm.57,1c.21,0,.56,0,.56-.39s-.27-.39-.47-.39H353v.78Z" transform="translate(-172.83 0.91)"/><path class="cls-10" d="M354.87,71.21h1.31v.18h-1.09v.7H356v.19h-.94v.81h1.13v.19h-1.34Z" transform="translate(-172.83 0.91)"/><path class="cls-10" d="M357.63,73.16h.23V71.33h-.23v-.12h.67v.12h-.23v1.83h.23v.12h-.67Z" transform="translate(-172.83 0.91)"/><path class="cls-10" d="M359.36,71.21l.54,1.32c.05.12.12.32.17.45s0,.12.07.12,0,0,0,0V71.21h.21v2.08H360l-.58-1.41-.13-.33c0-.09,0-.14-.07-.14a0,0,0,0,0,0,0v1.86H359V71.22Z" transform="translate(-172.83 0.91)"/><path class="cls-10" d="M362.27,71.81a.43.43,0,0,0-.44-.47c-.51,0-.55.75-.55.94s0,.91.54.91c.32,0,.44-.28.47-.51l.19.06a.66.66,0,0,1-.65.62.64.64,0,0,1-.57-.28,1.26,1.26,0,0,1-.19-.72,1.7,1.7,0,0,1,.17-.82.66.66,0,0,1,.62-.36.59.59,0,0,1,.59.58Z" transform="translate(-172.83 0.91)"/><path class="cls-10" d="M363,73.12a.19.19,0,0,1,.38,0,.19.19,0,0,1-.38,0Z" transform="translate(-172.83 0.91)"/><path class="cls-10" d="M332.14,63.17h2.46c1,0,1.67.22,1.67,1.22a1.16,1.16,0,0,1-1.11,1.2h0l1.26,1.67h-1l-1.18-1.61h-1.27v1.61h-.81ZM334.48,65c.65,0,1-.1,1-.58s-.33-.57-1-.57H333V65Z" transform="translate(-172.83 0.91)"/><path class="cls-10" d="M337.26,63.17h3.67v.69h-2.87v1h2.47v.69h-2.47v1.08H341v.68h-3.73Z" transform="translate(-172.83 0.91)"/><path class="cls-10" d="M345,64.41c-.13-.36-.46-.68-1.43-.68-.54,0-1.08.14-1.08.51,0,.17.1.36.92.46l1,.15c.92.14,1.46.51,1.46,1.18,0,1-.92,1.33-2,1.33-1.75,0-2.18-.87-2.28-1.17l.77-.24c.15.3.45.73,1.52.73.65,0,1.19-.21,1.19-.57s-.3-.44-.89-.51l-1-.14c-.95-.13-1.47-.54-1.47-1.16,0-1.23,1.59-1.23,1.9-1.23,1.76,0,2.06.82,2.16,1.1Z" transform="translate(-172.83 0.91)"/><path class="cls-10" d="M346.74,63.17h.8v4.09h-.8Z" transform="translate(-172.83 0.91)"/><path class="cls-10" d="M351.88,64.41c-.13-.36-.46-.68-1.43-.68-.54,0-1.08.14-1.08.51,0,.17.1.36.92.46l1,.15c.92.14,1.46.51,1.46,1.18,0,1-.92,1.33-2,1.33-1.75,0-2.18-.87-2.28-1.17l.77-.24c.15.3.45.73,1.52.73.65,0,1.19-.21,1.19-.57s-.3-.44-.89-.51l-1-.14c-.95-.13-1.47-.54-1.47-1.16,0-1.23,1.59-1.23,1.9-1.23,1.76,0,2.06.82,2.16,1.1Z" transform="translate(-172.83 0.91)"/><path class="cls-10" d="M355,63.86h-1.83v-.69h4.46v.69h-1.83v3.4H355Z" transform="translate(-172.83 0.91)"/><path class="cls-10" d="M360.49,63.07c1.8,0,2.44,1.06,2.44,2.18a2.45,2.45,0,1,1-2.44-2.18Zm1.64,2.13c0-1-.7-1.44-1.64-1.44s-1.64.46-1.64,1.44c0,1.16.87,1.47,1.64,1.47s1.66-.31,1.66-1.47Z" transform="translate(-172.83 0.91)"/><path class="cls-10" d="M363.84,63.17h2.46c1,0,1.67.22,1.67,1.22a1.16,1.16,0,0,1-1.11,1.2h0l1.26,1.67h-1l-1.18-1.61h-1.27v1.61h-.8ZM366.18,65c.65,0,1-.1,1-.58s-.33-.57-1-.57h-1.52V65Z" transform="translate(-172.83 0.91)"/><rect class="cls-12" x="342.11" y="38.5" width="6.54" height="2.5" transform="translate(-99.78 256.77) rotate(-45)"/><rect class="cls-11" x="345.65" y="42.04" width="6.54" height="2.5" transform="translate(-101.24 260.3) rotate(-45)"/><rect class="cls-11" x="349.18" y="45.56" width="6.54" height="2.5" transform="translate(-102.7 263.83) rotate(-45)"/><rect class="cls-12" x="352.71" y="49.1" width="6.54" height="2.5" transform="translate(-104.17 267.37) rotate(-45)"/><rect class="cls-7" x="342.59" y="39.67" width="3.25" height="2.5" transform="translate(-100.94 256.29) rotate(-45)"/><rect class="cls-7" x="346.13" y="43.2" width="3.25" height="2.5" transform="translate(-102.4 259.82) rotate(-45)"/><rect class="cls-7" x="349.66" y="46.73" width="3.25" height="2.5" transform="translate(-103.87 263.35) rotate(-45)"/><rect class="cls-7" x="353.19" y="50.27" width="3.25" height="2.5" transform="translate(-105.33 266.89) rotate(-45)"/><rect class="cls-13" x="358.52" y="45.08" width="2.5" height="2.5" transform="translate(-100.22 268.87) rotate(-45)"/><rect class="cls-10" x="360.29" y="43.32" width="2.5" height="2.5" transform="translate(-98.45 269.6) rotate(-45)"/><rect class="cls-13" x="356.9" y="40.31" width="2.5" height="2.5" transform="translate(-97.32 266.32) rotate(-45)"/><rect class="cls-10" x="358.66" y="38.54" width="2.5" height="2.5" transform="translate(-95.55 267.05) rotate(-45)"/><rect class="cls-13" x="358.13" y="34.92" width="2.5" height="2.5" transform="translate(-93.14 265.61) rotate(-45)"/><rect class="cls-10" x="359.89" y="33.15" width="2.5" height="2.5" transform="translate(-91.38 266.35) rotate(-45)"/><rect class="cls-13" x="347.4" y="35.3" width="2.5" height="2.5" transform="translate(-96.56 258.14) rotate(-45)"/><rect class="cls-10" x="349.16" y="33.53" width="2.5" height="2.5" transform="translate(-94.79 258.87) rotate(-45)"/><rect class="cls-13" x="352.17" y="37.4" width="2.5" height="2.5" transform="translate(-96.64 262.13) rotate(-45)"/><rect class="cls-10" x="353.94" y="35.64" width="2.5" height="2.5" transform="translate(-94.88 262.86) rotate(-45)"/></g></svg>