<!--Scalable Vector Graphic-->
<svg id="Layer_1" data-name="Layer 1" xmlns="http://www.w3.org/2000/svg" xmlns:xlink="http://www.w3.org/1999/xlink" viewBox="0 0 700.35 60.95"><defs><style>.cls-1{fill:#303836;}.cls-2,.cls-3,.cls-4,.cls-5,.cls-6,.cls-7{opacity:0.05;isolation:isolate;}.cls-2{fill:url(#linear-gradient);}.cls-3{fill:url(#linear-gradient-2);}.cls-4{fill:url(#linear-gradient-3);}.cls-5{fill:url(#linear-gradient-4);}.cls-6{fill:url(#linear-gradient-5);}.cls-7{fill:url(#linear-gradient-6);}.cls-8{fill:#95c048;}.cls-9{fill:#2a4720;}.cls-10{fill:none;}.cls-11{fill:#fff;}.cls-12{fill:#5f8e3d;}.cls-13{fill:#aacd6d;}.cls-14{fill:#408e04;}</style><linearGradient id="linear-gradient" x1="334.58" y1="-26.41" x2="535.83" y2="-17.33" gradientTransform="matrix(1, 0, 0, -1, -0.04, 3.3)" gradientUnits="userSpaceOnUse"><stop offset="0" stop-color="#fff"/><stop offset="1" stop-color="#231f20" stop-opacity="0"/></linearGradient><linearGradient id="linear-gradient-2" x1="378.71" y1="-25.79" x2="579.93" y2="-16.71" xlink:href="#linear-gradient"/><linearGradient id="linear-gradient-3" x1="417.7" y1="-25" x2="619.29" y2="-15.9" xlink:href="#linear-gradient"/><linearGradient id="linear-gradient-4" x1="298.32" y1="-25.41" x2="499.57" y2="-16.33" gradientTransform="translate(663.92 4.3) rotate(180)" xlink:href="#linear-gradient"/><linearGradient id="linear-gradient-5" x1="342.45" y1="-24.79" x2="543.66" y2="-15.71" gradientTransform="translate(663.92 4.3) rotate(180)" xlink:href="#linear-gradient"/><linearGradient id="linear-gradient-6" x1="381.43" y1="-24" x2="583.03" y2="-14.9" gradientTransform="translate(663.92 4.3) rotate(180)" xlink:href="#linear-gradient"/></defs><title>proposal-header-image</title><rect class="cls-1" y="0.67" width="700.35" height="60.28"/><polygon class="cls-2" points="409.79 60.06 409.47 59.75 348.38 0 244.92 0 306.34 60.06 409.79 60.06"/><polygon class="cls-3" points="433.9 60.33 433.31 59.75 372.52 0.3 269.07 0.3 330.44 60.33 433.9 60.33"/><polygon class="cls-4" points="455.22 60.5 454.45 59.75 393.51 0.15 290.05 0.15 351.76 60.5 455.22 60.5"/><polygon class="cls-5" points="290.35 60.06 290.67 59.75 351.76 0 455.22 0 393.8 60.06 290.35 60.06"/><polygon class="cls-6" points="266.24 60.33 266.83 59.75 327.62 0.3 431.07 0.3 369.7 60.33 266.24 60.33"/><polygon class="cls-7" points="244.92 60.5 245.69 59.75 306.63 0.15 410.09 0.15 348.38 60.5 244.92 60.5"/><g id="Layer_1-2" data-name="Layer 1-2"><rect class="cls-8" x="336.85" y="9.16" width="27.59" height="27.59" rx="5" ry="5"/><rect class="cls-8" x="336.85" y="9.16" width="27.59" height="27.59" rx="5" ry="5"/><path class="cls-9" d="M340.74,12l-1.38-1-1.66.76-.59.23a5,5,0,0,0-.22,1.47V31a5,5,0,0,0,5,5h17.59a5,5,0,0,0,.92-.09l1.52-1.52-.26-1.52Z" transform="translate(-0.04 0.7)"/><rect class="cls-10" x="336.85" y="9.16" width="27.59" height="27.59" rx="5" ry="5"/><rect class="cls-10" x="336.85" y="9.16" width="27.59" height="27.59" rx="5" ry="5"/><path class="cls-11" d="M361.16,31.85a3.28,3.28,0,0,0-.39-4.14L345.22,12.16a3.28,3.28,0,0,0-4.14-.39l-.15-.15a3,3,0,0,0-3.46-.51,5,5,0,0,0-.58,2.15l.74-.74a1.7,1.7,0,0,1,2.4,0h0l.15.15a3.28,3.28,0,0,0,.42,4.12l15.55,15.55a3.28,3.28,0,0,0,4.12.42l.15.15a1.7,1.7,0,0,1,0,2.4h0l-.74.75a5,5,0,0,0,2.16-.58,3,3,0,0,0-.51-3.46Z" transform="translate(-0.04 0.7)"/><polygon class="cls-12" points="345.68 36.74 349.21 36.74 353.85 32.11 352.08 30.34 345.68 36.74"/><path class="cls-12" d="M339.35,35.35a5,5,0,0,0,2.53.69h.3l8.18-8.17-1.77-1.77Z" transform="translate(-0.04 0.7)"/><polygon class="cls-12" points="336.85 24.39 336.85 27.91 343.25 21.51 341.49 19.75 336.85 24.39"/><path class="cls-12" d="M345.06,22.57l-8.17,8.17V31a5,5,0,0,0,.69,2.53l9.24-9.24Z" transform="translate(-0.04 0.7)"/><path class="cls-11" d="M340.7,48.89a.45.45,0,0,0-.45-.35.35.35,0,0,0-.37.32h0v0c0,.23.22.32.32.36l.3.12c.3.13.47.26.47.6a.59.59,0,0,1-.22.45.77.77,0,0,1-.47.13.72.72,0,0,1-.67-.51l.19-.09a.6.6,0,0,0,.25.33.58.58,0,0,0,.3.07.38.38,0,0,0,.41-.39.37.37,0,0,0-.22-.35l-.1-.05c-.13-.07-.27-.11-.39-.17a.57.57,0,0,1-.3-.27.62.62,0,0,1-.06-.25.51.51,0,0,1,.47-.54h.13a.64.64,0,0,1,.62.43Z" transform="translate(-0.04 0.7)"/><path class="cls-11" d="M342.87,50.17a.61.61,0,0,1-.58.39.65.65,0,0,1-.51-.22,1.27,1.27,0,0,1-.23-.81,1.81,1.81,0,0,1,.13-.78.67.67,0,0,1,1.14-.1,1.56,1.56,0,0,1,.19.82A1.64,1.64,0,0,1,342.87,50.17Zm-.61-1.63a.47.47,0,0,0-.43.33,1.76,1.76,0,0,0-.09.62,1.48,1.48,0,0,0,.11.62.44.44,0,0,0,.81,0,1.41,1.41,0,0,0,.11-.63c0-.3,0-.93-.51-.93Z" transform="translate(-0.04 0.7)"/><path class="cls-11" d="M343.66,48.41H345v.18h-1.08v.75h.92v.18h-.91v1h-.22Z" transform="translate(-0.04 0.7)"/><path class="cls-11" d="M347,48.41v.18h-.66v1.89h-.22V48.59h-.66v-.18Z" transform="translate(-0.04 0.7)"/><path class="cls-11" d="M349.89,48.41h.22l-.6,2.08h-.22L348.9,49a1.6,1.6,0,0,0-.08-.3h0a1.46,1.46,0,0,0-.08.31l-.37,1.44h-.22l-.61-2.08h.22l.4,1.43a1.9,1.9,0,0,0,.1.32h0a1.82,1.82,0,0,0,.09-.35l.36-1.41h.22l.38,1.42a1.79,1.79,0,0,0,.09.33h0a1.66,1.66,0,0,0,.1-.35Z" transform="translate(-0.04 0.7)"/><path class="cls-11" d="M350.37,50.49l.81-2.11h.21l.8,2.11h-.23l-.19-.51h-1l-.19.51Zm1.34-.68-.42-1.12h0l-.42,1.12Z" transform="translate(-0.04 0.7)"/><path class="cls-11" d="M352.78,48.41h.68a.66.66,0,0,1,.51.16.51.51,0,0,1,.15.41.54.54,0,0,1-.5.57h-.08l.65.94h-.26l-.6-.92H353v.92h-.22Zm.57,1c.21,0,.56,0,.56-.39s-.27-.39-.47-.39H353v.78Z" transform="translate(-0.04 0.7)"/><path class="cls-11" d="M354.87,48.41h1.31v.18h-1.09v.7H356v.19h-.94v.81h1.13v.19h-1.34Z" transform="translate(-0.04 0.7)"/><path class="cls-11" d="M357.63,50.37h.23V48.53h-.23v-.12h.67v.12h-.23v1.83h.23v.12h-.67Z" transform="translate(-0.04 0.7)"/><path class="cls-11" d="M359.36,48.41l.54,1.32c.05.12.12.32.17.45s0,.12.07.12,0,0,0,0V48.41h.21v2.08H360l-.58-1.41-.13-.33c0-.09,0-.14-.07-.14a0,0,0,0,0,0,0v1.86H359V48.42Z" transform="translate(-0.04 0.7)"/><path class="cls-11" d="M362.27,49a.43.43,0,0,0-.44-.47c-.51,0-.55.75-.55.94s0,.91.54.91c.32,0,.44-.28.47-.51l.19.06a.66.66,0,0,1-.65.62.64.64,0,0,1-.57-.28,1.26,1.26,0,0,1-.19-.72,1.7,1.7,0,0,1,.17-.82.66.66,0,0,1,.62-.36.59.59,0,0,1,.59.58Z" transform="translate(-0.04 0.7)"/><path class="cls-11" d="M363,50.33a.19.19,0,0,1,.38,0,.19.19,0,0,1-.38,0Z" transform="translate(-0.04 0.7)"/><path class="cls-11" d="M332.14,40.37h2.46c1,0,1.67.22,1.67,1.22a1.16,1.16,0,0,1-1.11,1.2h0l1.26,1.67h-1l-1.18-1.61h-1.27v1.61h-.81Zm2.34,1.82c.65,0,1-.1,1-.58s-.33-.57-1-.57H333v1.15Z" transform="translate(-0.04 0.7)"/><path class="cls-11" d="M337.26,40.37h3.67v.69h-2.87v1h2.47v.69h-2.47v1.08H341v.68h-3.73Z" transform="translate(-0.04 0.7)"/><path class="cls-11" d="M345,41.62c-.13-.36-.46-.68-1.43-.68-.54,0-1.08.14-1.08.51,0,.17.1.36.92.46l1,.15c.92.14,1.46.51,1.46,1.18,0,1-.92,1.33-2,1.33-1.75,0-2.18-.87-2.28-1.17l.77-.24c.15.3.45.73,1.52.73.65,0,1.19-.21,1.19-.57s-.3-.44-.89-.51l-1-.14c-.95-.13-1.47-.54-1.47-1.16,0-1.23,1.59-1.23,1.9-1.23,1.76,0,2.06.82,2.16,1.1Z" transform="translate(-0.04 0.7)"/><path class="cls-11" d="M346.74,40.37h.8v4.09h-.8Z" transform="translate(-0.04 0.7)"/><path class="cls-11" d="M351.88,41.62c-.13-.36-.46-.68-1.43-.68-.54,0-1.08.14-1.08.51,0,.17.1.36.92.46l1,.15c.92.14,1.46.51,1.46,1.18,0,1-.92,1.33-2,1.33-1.75,0-2.18-.87-2.28-1.17l.77-.24c.15.3.45.73,1.52.73.65,0,1.19-.21,1.19-.57s-.3-.44-.89-.51l-1-.14c-.95-.13-1.47-.54-1.47-1.16,0-1.23,1.59-1.23,1.9-1.23,1.76,0,2.06.82,2.16,1.1Z" transform="translate(-0.04 0.7)"/><path class="cls-11" d="M355,41.06h-1.83v-.69h4.46v.69h-1.83v3.4H355Z" transform="translate(-0.04 0.7)"/><path class="cls-11" d="M360.49,40.27c1.8,0,2.44,1.06,2.44,2.18a2.45,2.45,0,1,1-2.44-2.18Zm1.64,2.13c0-1-.7-1.44-1.64-1.44s-1.64.46-1.64,1.44c0,1.16.87,1.47,1.64,1.47s1.66-.31,1.66-1.47Z" transform="translate(-0.04 0.7)"/><path class="cls-11" d="M363.84,40.37h2.46c1,0,1.67.22,1.67,1.22a1.16,1.16,0,0,1-1.11,1.2h0l1.26,1.67h-1l-1.18-1.61h-1.27v1.61h-.8Zm2.34,1.82c.65,0,1-.1,1-.58s-.33-.57-1-.57h-1.52v1.15Z" transform="translate(-0.04 0.7)"/><rect class="cls-13" x="342.11" y="15.7" width="6.54" height="2.5" transform="translate(89.13 249.89) rotate(-45)"/><rect class="cls-12" x="345.65" y="19.24" width="6.54" height="2.5" transform="translate(87.67 253.42) rotate(-45)"/><rect class="cls-12" x="349.18" y="22.77" width="6.54" height="2.5" transform="translate(86.21 256.95) rotate(-45)"/><rect class="cls-13" x="352.71" y="26.3" width="6.54" height="2.5" transform="translate(84.74 260.49) rotate(-45)"/><rect class="cls-8" x="342.59" y="16.87" width="3.25" height="2.5" transform="translate(87.97 249.41) rotate(-45)"/><rect class="cls-8" x="346.13" y="20.4" width="3.25" height="2.5" transform="translate(86.51 252.94) rotate(-45)"/><rect class="cls-8" x="349.66" y="23.93" width="3.25" height="2.5" transform="translate(85.05 256.47) rotate(-45)"/><rect class="cls-8" x="353.19" y="27.47" width="3.25" height="2.5" transform="translate(83.58 260.01) rotate(-45)"/><rect class="cls-14" x="358.52" y="22.28" width="2.5" height="2.5" transform="translate(88.7 261.99) rotate(-45)"/><rect class="cls-11" x="360.29" y="20.52" width="2.5" height="2.5" transform="translate(90.46 262.72) rotate(-45)"/><rect class="cls-14" x="356.9" y="17.51" width="2.5" height="2.5" transform="translate(91.59 259.44) rotate(-45)"/><rect class="cls-11" x="358.66" y="15.74" width="2.5" height="2.5" transform="translate(93.36 260.17) rotate(-45)"/><rect class="cls-14" x="358.13" y="12.12" width="2.5" height="2.5" transform="translate(95.77 258.74) rotate(-45)"/><rect class="cls-11" x="359.89" y="10.35" width="2.5" height="2.5" transform="translate(97.53 259.47) rotate(-45)"/><rect class="cls-14" x="347.4" y="12.5" width="2.5" height="2.5" transform="translate(92.36 251.26) rotate(-45)"/><rect class="cls-11" x="349.16" y="10.73" width="2.5" height="2.5" transform="translate(94.12 251.99) rotate(-45)"/><rect class="cls-14" x="352.17" y="14.6" width="2.5" height="2.5" transform="translate(92.27 255.25) rotate(-45)"/><rect class="cls-11" x="353.94" y="12.84" width="2.5" height="2.5" transform="translate(94.03 255.98) rotate(-45)"/></g></svg>