<!--Scalable Vector Graphic-->
<svg id="Layer_1" data-name="Layer 1" xmlns="http://www.w3.org/2000/svg" viewBox="0 0 101.13 16.12"><defs><style>.cls-1{fill:#94bf47;}.cls-2{fill:#5f8f3e;}.cls-3{fill:#fff;}</style></defs><title>shopify-expert-black</title><path d="M59.78,10.87c-.06-.29-.16-.51-.55-.51s-.74.35-.9,1.1,0,1.11.44,1.11A1.09,1.09,0,0,0,59.6,12l.54.34a1.79,1.79,0,0,1-1.54.85c-.92,0-1.32-.68-1.08-1.76a2,2,0,0,1,1.85-1.75,1,1,0,0,1,1.13.85v.05Z" transform="translate(0.02 -0.01)"/><path d="M61.33,11.59c-.14.7.11,1,.49,1a1.15,1.15,0,0,0,.84-.4l.5.36a1.93,1.93,0,0,1-1.57.69c-.88,0-1.28-.68-1-1.76a2,2,0,0,1,1.85-1.75c.89,0,1.22.74,1,1.55l-.08.33ZM62.75,11c.09-.47-.1-.74-.49-.74a.86.86,0,0,0-.81.74Z" transform="translate(0.02 -0.01)"/><path d="M63.39,13.16l.75-3.38h.74l-.12.58h0a1.29,1.29,0,0,1,1.09-.64l-.19.85h-.14a1.3,1.3,0,0,0-.88.55l-.46,2Z" transform="translate(0.02 -0.01)"/><path d="M66.61,9.78l.25-1.12h.81l-.25,1.12h.66l-.14.65h-.71l-.42,1.91c0,.18,0,.23.24.23a1.94,1.94,0,0,0,.38-.07l-.14.66a5.52,5.52,0,0,1-.65,0c-.6,0-.77-.3-.66-.78l.45-2H66l.14-.65Z" transform="translate(0.02 -0.01)"/><path d="M68.7,13.16h-.81l.75-3.38h.81Zm.08-4,.16-.75h.81l-.16.75Z" transform="translate(0.02 -0.01)"/><path d="M71.05,10.42l-.6,2.73h-.81l.61-2.73h-.47l.14-.65h.46l.09-.42a1,1,0,0,1,1-1h.71L72,9h-.22c-.34,0-.47.1-.53.36l-.08.36h.68l-.14.65Zm1.24,2.73h-.81l.75-3.38H73Zm.08-4,.16-.75h.8l-.16.75Z" transform="translate(0.02 -0.01)"/><path d="M73.9,11.59c-.14.7.11,1,.49,1a1.16,1.16,0,0,0,.85-.4l.5.36a1.92,1.92,0,0,1-1.57.69c-.88,0-1.28-.68-1-1.76A2,2,0,0,1,75,9.73c.89,0,1.21.74,1,1.55l-.08.33ZM75.32,11c.09-.47-.1-.74-.49-.74A.86.86,0,0,0,74,11Z" transform="translate(0.02 -0.01)"/><path d="M78.95,13.16h-.72V12.8a1.56,1.56,0,0,1-1,.43c-.9,0-1.18-.79-.94-1.85A2,2,0,0,1,78,9.72a.93.93,0,0,1,.74.38h0l.36-1.62h.81Zm-.25-2.51a.73.73,0,0,0-.57-.29c-.48,0-.84.39-1,1.1s0,1.11.51,1.11a1.08,1.08,0,0,0,.69-.3Z" transform="translate(0.02 -0.01)"/><path d="M82.69,11.59c-.14.7.11,1,.49,1a1.16,1.16,0,0,0,.85-.4l.5.36a1.92,1.92,0,0,1-1.57.69c-.88,0-1.28-.68-1-1.76a2,2,0,0,1,1.85-1.75c.89,0,1.22.74,1,1.55l-.08.33ZM84.11,11c.09-.47-.1-.74-.49-.74a.86.86,0,0,0-.81.74Z" transform="translate(0.02 -0.01)"/><path d="M85.79,11.4l-.6-1.62h.89l.27.94L87,9.78h.87L86.6,11.41l.64,1.75h-.86l-.33-1-.78,1H84.4Z" transform="translate(0.02 -0.01)"/><path d="M88.28,9.78H89l-.06.31a1.46,1.46,0,0,1,.94-.38c.9,0,1.18.79,1,1.85a2,2,0,0,1-1.72,1.66.91.91,0,0,1-.73-.38h0l-.34,1.55h-.86Zm.25,2.51a.72.72,0,0,0,.56.29c.48,0,.84-.39,1-1.11s0-1.1-.51-1.1a1.09,1.09,0,0,0-.69.3Z" transform="translate(0.02 -0.01)"/><path d="M91.89,11.59c-.14.7.11,1,.49,1a1.15,1.15,0,0,0,.84-.4l.5.36a1.93,1.93,0,0,1-1.57.69c-.88,0-1.28-.68-1-1.76A2,2,0,0,1,93,9.73c.89,0,1.21.74,1,1.55l-.08.33ZM93.31,11c.09-.47-.1-.74-.49-.74A.86.86,0,0,0,92,11Z" transform="translate(0.02 -0.01)"/><path d="M93.95,13.16l.75-3.38h.74l-.12.58h0a1.3,1.3,0,0,1,1.09-.64l-.19.85h-.14a1.3,1.3,0,0,0-.88.55l-.46,2Z" transform="translate(0.02 -0.01)"/><path d="M97.08,9.78l.25-1.12h.81l-.25,1.12h.66l-.14.65h-.66l-.42,1.91c0,.18,0,.23.24.23a2,2,0,0,0,.38-.07l-.14.66a5.5,5.5,0,0,1-.65,0c-.6,0-.77-.3-.66-.78l.45-2h-.47l.14-.65Z" transform="translate(0.02 -0.01)"/><path d="M100.5,10.67a.7.7,0,0,0-.55-.36c-.31,0-.48.13-.53.33-.13.58,1.61.33,1.34,1.57a1.35,1.35,0,0,1-1.46,1,1.16,1.16,0,0,1-1.13-.68l.63-.4a.75.75,0,0,0,.68.49.55.55,0,0,0,.57-.38c.13-.58-1.61-.37-1.35-1.55a1.33,1.33,0,0,1,1.33-1,1.23,1.23,0,0,1,1.08.51Z" transform="translate(0.02 -0.01)"/><path class="cls-1" d="M12.12,3A.14.14,0,0,0,12,2.91l-1.26-.09-.94-.93a.38.38,0,0,0-.34,0L9,2C8.69,1.22,8.19.47,7.32.47H7.23A1.06,1.06,0,0,0,6.42,0c-2,0-3,2.54-3.31,3.83l-1.42.44c-.44.14-.45.15-.51.56S0,14.07,0,14.07l9,1.68,4.87-1S12.13,3.15,12.12,3Zm-3.65-.9-.76.24V2.2A3.78,3.78,0,0,0,7.53,1c.46.06.75.62.94,1.2ZM7,1.13a3.78,3.78,0,0,1,.2,1.37v.09L5.6,3.08A2.73,2.73,0,0,1,7,1.12ZM6.37.55a.45.45,0,0,1,.26.09A3.35,3.35,0,0,0,5,3.26l-1.24.38C4.09,2.47,4.92.55,6.37.55Z" transform="translate(0.02 -0.01)"/><path class="cls-2" d="M12,2.94l-1.26-.09-.94-.93a.18.18,0,0,0-.12-.06L9,15.75l4.87-1L12.13,3A.2.2,0,0,0,12,2.94Z" transform="translate(0.02 -0.01)"/><path class="cls-3" d="M7.32,5.63l-.6,1.78a2.78,2.78,0,0,0-1.17-.28c-.95,0-1,.6-1,.75,0,.81,2.12,1.13,2.12,3a2.25,2.25,0,0,1-2,2.46H4.43a3.08,3.08,0,0,1-2.33-1L2.52,11a3,3,0,0,0,1.49.7.6.6,0,0,0,.63-.57s0,0,0,0C4.64,10,2.9,10,2.9,8.21a2.9,2.9,0,0,1,2.9-2.9h.28A2.52,2.52,0,0,1,7.32,5.63Z" transform="translate(0.02 -0.01)"/><path id="s" d="M19.51,9c-.49-.26-.73-.49-.73-.79s.35-.63.89-.63a3.23,3.23,0,0,1,1.2.26l.44-1.35a2.81,2.81,0,0,0-1.6-.32c-1.67,0-2.83,1-2.83,2.3a2.13,2.13,0,0,0,1.26,1.76c.59.33.79.56.79.91s-.29.65-.84.65a3.77,3.77,0,0,1-1.57-.42l-.47,1.35a3.58,3.58,0,0,0,1.89.47c1.72,0,3-.85,3-2.37A2.27,2.27,0,0,0,19.51,9Z" transform="translate(0.02 -0.01)"/><path id="h" d="M26.36,6.12a2.58,2.58,0,0,0-2,1h0l.73-3.84H23.18l-2,9.75h2l.63-3.34c.25-1.26.9-2,1.51-2,.43,0,.6.29.6.71a4.3,4.3,0,0,1-.08.85L25.13,13H27l.75-4a7.55,7.55,0,0,0,.14-1.25A1.5,1.5,0,0,0,26.36,6.12Z" transform="translate(0.02 -0.01)"/><path id="o" d="M32.23,6.12c-2.3,0-3.83,2.08-3.83,4.39a2.5,2.5,0,0,0,2.31,2.68H31c2.26,0,3.78-2,3.78-4.39a2.46,2.46,0,0,0-2.23-2.67Zm-.94,5.6c-.65,0-.93-.55-.93-1.25,0-1.1.56-2.88,1.6-2.88.68,0,.9.59.9,1.15,0,1.18-.54,3-1.55,3Z" transform="translate(0.02 -0.01)"/><path id="p" d="M39.73,6.12a2.62,2.62,0,0,0-2,1.14h0l.11-1H36.15C36.07,7,35.91,8,35.77,8.8l-1.33,7h1.91L36.88,13h0a2.24,2.24,0,0,0,1.12.25c2.25,0,3.71-2.3,3.71-4.63C41.71,7.28,41.13,6.12,39.73,6.12ZM37.9,11.74a1.2,1.2,0,0,1-.79-.28l.32-1.78c.23-1.2.85-2,1.51-2s.77.54.77,1c0,1.35-.73,3.07-1.81,3.07Z" transform="translate(0.02 -0.01)"/><path id="dot" d="M44.44,3.38a1.09,1.09,0,0,0-1.1,1.08s0,0,0,0a.89.89,0,0,0,.77,1h.13a1.08,1.08,0,0,0,1.12-1s0,0,0-.07a.9.9,0,0,0-.79-1Z" transform="translate(0.02 -0.01)"/><polygon id="i" points="41.79 13.04 43.7 13.04 45 6.25 43.08 6.25 41.79 13.04"/><path id="f" d="M49.84,6.26H48.51l.07-.32c.11-.65.5-1.23,1.14-1.23a1.93,1.93,0,0,1,.61.1l.37-1.5a2.45,2.45,0,0,0-1-.17,2.88,2.88,0,0,0-1.87.63,3.57,3.57,0,0,0-1.11,2.17l-.06.32h-.89L45.49,7.7h.89l-1,5.35h1.85l1-5.35h1.32Z" transform="translate(0.02 -0.01)"/><path id="y" d="M54.44,6.27s-1.2,3-1.73,4.66h0c0-.53-.47-4.66-.47-4.66h-2l1.15,6.22a.42.42,0,0,1,0,.32,3.35,3.35,0,0,1-1,1.15,4.41,4.41,0,0,1-1.08.54l.53,1.63a4.4,4.4,0,0,0,1.87-1,12.78,12.78,0,0,0,2.51-3.79l2.34-5Z" transform="translate(0.02 -0.01)"/></svg>