<!--Scalable Vector Graphic-->
<svg id="Layer_1" data-name="Layer 1" xmlns="http://www.w3.org/2000/svg" viewBox="0 0 101.11 16.12"><defs><style>.cls-1{fill:#fff;}.cls-2{fill:#94bf47;}.cls-3{fill:#5f8f3e;}</style></defs><title>shopify-expert</title><path class="cls-1" d="M308.55,396.84c-.06-.29-.16-.51-.55-.51s-.74.35-.9,1.1,0,1.11.44,1.11a1.09,1.09,0,0,0,.83-.54l.54.34a1.79,1.79,0,0,1-1.54.85c-.92,0-1.32-.68-1.08-1.76a2,2,0,0,1,1.85-1.75,1,1,0,0,1,1.14.9Z" transform="translate(-248.77 -385.97)"/><path class="cls-1" d="M310.1,397.56c-.14.7.11,1,.49,1a1.15,1.15,0,0,0,.84-.4l.5.36a1.93,1.93,0,0,1-1.57.69c-.88,0-1.28-.68-1-1.76a2,2,0,0,1,1.85-1.75c.89,0,1.22.74,1,1.55l-.08.33Zm1.42-.55c.09-.47-.1-.74-.49-.74a.86.86,0,0,0-.81.74Z" transform="translate(-248.77 -385.97)"/><path class="cls-1" d="M312.16,399.13l.75-3.38h.74l-.12.58h0a1.29,1.29,0,0,1,1.09-.64l-.19.85h-.14a1.3,1.3,0,0,0-.88.55l-.46,2.05Z" transform="translate(-248.77 -385.97)"/><path class="cls-1" d="M315.38,395.75l.25-1.12h.81l-.25,1.12h.66l-.14.65H316l-.42,1.91c0,.18,0,.23.24.23a1.94,1.94,0,0,0,.38-.07l-.14.66a5.52,5.52,0,0,1-.65.05c-.6,0-.77-.3-.66-.78l.45-2h-.47l.14-.65Z" transform="translate(-248.77 -385.97)"/><path class="cls-1" d="M317.47,399.13h-.81l.75-3.38h.81Zm.08-4,.16-.75h.81l-.16.75Z" transform="translate(-248.77 -385.97)"/><path class="cls-1" d="M319.82,396.39l-.6,2.73h-.81l.61-2.73h-.47l.14-.65h.46l.09-.42a1,1,0,0,1,1.17-1h.53l-.14.65h-.22c-.34,0-.47.1-.53.36l-.08.36h.68l-.14.65Zm1.24,2.73h-.81l.75-3.38h.81Zm.08-4,.16-.75h.8l-.16.75Z" transform="translate(-248.77 -385.97)"/><path class="cls-1" d="M322.67,397.56c-.14.7.11,1,.49,1a1.16,1.16,0,0,0,.85-.4l.5.36a1.92,1.92,0,0,1-1.57.69c-.88,0-1.28-.68-1-1.76a2,2,0,0,1,1.85-1.75c.89,0,1.21.74,1,1.55l-.08.33Zm1.42-.55c.09-.47-.1-.74-.49-.74a.86.86,0,0,0-.81.74Z" transform="translate(-248.77 -385.97)"/><path class="cls-1" d="M327.72,399.13H327l0-.36a1.56,1.56,0,0,1-1,.43c-.9,0-1.18-.79-.94-1.85a2,2,0,0,1,1.72-1.66.93.93,0,0,1,.74.38h0l.36-1.62h.81Zm-.25-2.51a.73.73,0,0,0-.57-.29c-.48,0-.84.39-1,1.1s0,1.11.51,1.11a1.08,1.08,0,0,0,.69-.3Z" transform="translate(-248.77 -385.97)"/><path class="cls-1" d="M331.46,397.56c-.14.7.11,1,.49,1a1.16,1.16,0,0,0,.85-.4l.5.36a1.92,1.92,0,0,1-1.57.69c-.88,0-1.28-.68-1-1.76a2,2,0,0,1,1.85-1.75c.89,0,1.22.74,1,1.55l-.08.33Zm1.42-.55c.09-.47-.1-.74-.49-.74a.86.86,0,0,0-.81.74Z" transform="translate(-248.77 -385.97)"/><path class="cls-1" d="M334.56,397.37l-.6-1.62h.89l.27.94.69-.94h.87l-1.31,1.63.64,1.75h-.86l-.33-1.05-.78,1.05h-.87Z" transform="translate(-248.77 -385.97)"/><path class="cls-1" d="M337.05,395.75h.77l-.06.31a1.46,1.46,0,0,1,.94-.38c.9,0,1.18.79.95,1.85a2,2,0,0,1-1.72,1.66.91.91,0,0,1-.73-.38h0l-.34,1.55H336Zm.25,2.51a.72.72,0,0,0,.56.29c.48,0,.84-.39,1-1.11s0-1.1-.51-1.1a1.09,1.09,0,0,0-.69.3Z" transform="translate(-248.77 -385.97)"/><path class="cls-1" d="M340.66,397.56c-.14.7.11,1,.49,1a1.15,1.15,0,0,0,.84-.4l.5.36a1.93,1.93,0,0,1-1.57.69c-.88,0-1.28-.68-1-1.76a2,2,0,0,1,1.85-1.75c.89,0,1.21.74,1,1.55l-.08.33Zm1.42-.55c.09-.47-.1-.74-.49-.74a.86.86,0,0,0-.81.74Z" transform="translate(-248.77 -385.97)"/><path class="cls-1" d="M342.72,399.13l.75-3.38h.74l-.12.58h0a1.3,1.3,0,0,1,1.09-.64l-.19.85h-.14a1.3,1.3,0,0,0-.88.55l-.46,2.05Z" transform="translate(-248.77 -385.97)"/><path class="cls-1" d="M345.85,395.75l.25-1.12h.81l-.25,1.12h.66l-.14.65h-.66l-.42,1.91c0,.18,0,.23.24.23a2,2,0,0,0,.38-.07l-.14.66a5.49,5.49,0,0,1-.65.05c-.6,0-.77-.3-.66-.78l.45-2h-.47l.14-.65Z" transform="translate(-248.77 -385.97)"/><path class="cls-1" d="M349.27,396.64a.7.7,0,0,0-.55-.36c-.31,0-.48.13-.53.33-.13.58,1.61.33,1.34,1.57a1.35,1.35,0,0,1-1.46,1,1.16,1.16,0,0,1-1.13-.68l.63-.4a.75.75,0,0,0,.68.49.55.55,0,0,0,.57-.38c.13-.58-1.61-.37-1.35-1.55a1.33,1.33,0,0,1,1.33-1,1.23,1.23,0,0,1,1.08.51Z" transform="translate(-248.77 -385.97)"/><path class="cls-2" d="M260.89,389a.14.14,0,0,0-.14-.12l-1.26-.09s-.84-.84-.94-.93a.38.38,0,0,0-.34,0l-.47.15c-.28-.82-.78-1.57-1.65-1.57H256a1.06,1.06,0,0,0-.81-.46c-2,0-3,2.54-3.31,3.83l-1.42.44c-.44.14-.45.15-.51.56s-1.2,9.23-1.2,9.23l9,1.68,4.87-1S260.9,389.12,260.89,389Zm-3.65-.9-.76.24v-.17a3.78,3.78,0,0,0-.18-1.23C256.76,387,257.05,387.56,257.24,388.14Zm-1.5-1a3.78,3.78,0,0,1,.2,1.37v.09l-1.57.49A2.73,2.73,0,0,1,255.74,387.09Zm-.6-.58a.45.45,0,0,1,.26.09,3.35,3.35,0,0,0-1.64,2.62l-1.24.38C252.86,388.44,253.69,386.52,255.14,386.52Z" transform="translate(-248.77 -385.97)"/><path class="cls-3" d="M260.75,388.91l-1.26-.09s-.84-.84-.94-.93a.18.18,0,0,0-.12-.06l-.68,13.89,4.87-1L260.9,389A.2.2,0,0,0,260.75,388.91Z" transform="translate(-248.77 -385.97)"/><path class="cls-1" d="M256.09,391.6l-.6,1.78a2.78,2.78,0,0,0-1.17-.28c-.95,0-1,.6-1,.75,0,.81,2.12,1.13,2.12,3a2.25,2.25,0,0,1-2.24,2.47,3.08,3.08,0,0,1-2.33-1l.42-1.37a3,3,0,0,0,1.49.7.6.6,0,0,0,.63-.61c0-1.06-1.74-1.11-1.74-2.86a2.9,2.9,0,0,1,3.18-2.89A2.52,2.52,0,0,1,256.09,391.6Z" transform="translate(-248.77 -385.97)"/><path id="s" class="cls-1" d="M268.28,394.95c-.49-.26-.73-.49-.73-.79s.35-.63.89-.63a3.23,3.23,0,0,1,1.2.26l.44-1.35a2.81,2.81,0,0,0-1.6-.32c-1.67,0-2.83,1-2.83,2.3a2.13,2.13,0,0,0,1.26,1.76c.59.33.79.56.79.91s-.29.65-.84.65a3.77,3.77,0,0,1-1.57-.42l-.47,1.35a3.58,3.58,0,0,0,1.89.47c1.72,0,3-.85,3-2.37A2.27,2.27,0,0,0,268.28,394.95Z" transform="translate(-248.77 -385.97)"/><path id="h" class="cls-1" d="M275.13,392.09a2.58,2.58,0,0,0-2,1h0l.73-3.84h-1.91L270,399H272l.63-3.34c.25-1.26.9-2,1.51-2,.43,0,.6.29.6.71a4.3,4.3,0,0,1-.08.85L273.9,399h1.91l.75-4a7.55,7.55,0,0,0,.14-1.25C276.69,392.74,276.13,392.09,275.13,392.09Z" transform="translate(-248.77 -385.97)"/><path id="o" class="cls-1" d="M281,392.09c-2.3,0-3.83,2.08-3.83,4.39a2.5,2.5,0,0,0,2.63,2.68c2.26,0,3.78-2,3.78-4.39A2.46,2.46,0,0,0,281,392.09Zm-.94,5.6c-.65,0-.93-.55-.93-1.25,0-1.1.56-2.88,1.6-2.88.68,0,.9.59.9,1.15C281.66,395.89,281.09,397.69,280.08,397.69Z" transform="translate(-248.77 -385.97)"/><path id="p" class="cls-1" d="M288.5,392.09a2.62,2.62,0,0,0-2,1.14h0l.11-1h-1.69c-.08.69-.24,1.75-.38,2.54l-1.33,7h1.91l.53-2.83h0a2.24,2.24,0,0,0,1.12.25c2.25,0,3.71-2.3,3.71-4.63C290.48,393.25,289.9,392.09,288.5,392.09Zm-1.83,5.62a1.2,1.2,0,0,1-.79-.28l.32-1.78c.23-1.2.85-2,1.51-2s.77.54.77,1C288.48,396,287.75,397.72,286.67,397.72Z" transform="translate(-248.77 -385.97)"/><path id="dot" class="cls-1" d="M293.21,389.35a1.09,1.09,0,0,0-1.1,1.11.89.89,0,0,0,.9,1h0a1.08,1.08,0,0,0,1.12-1.11A.9.9,0,0,0,293.21,389.35Z" transform="translate(-248.77 -385.97)"/><polygon id="i" class="cls-1" points="41.77 13.05 43.68 13.05 44.98 6.26 43.06 6.26 41.77 13.05"/><path id="f" class="cls-1" d="M298.61,392.23h-1.33l.07-.32c.11-.65.5-1.23,1.14-1.23a1.93,1.93,0,0,1,.61.1l.37-1.5a2.45,2.45,0,0,0-1-.17,2.88,2.88,0,0,0-1.87.63,3.57,3.57,0,0,0-1.11,2.17l-.06.32h-.89l-.28,1.44h.89l-1,5.35H296l1-5.35h1.32Z" transform="translate(-248.77 -385.97)"/><path id="y" class="cls-1" d="M303.21,392.24s-1.2,3-1.73,4.66h0c0-.53-.47-4.66-.47-4.66h-2l1.15,6.22a.42.42,0,0,1,0,.32,3.35,3.35,0,0,1-1,1.15,4.41,4.41,0,0,1-1.08.54l.53,1.63a4.4,4.4,0,0,0,1.87-1,12.78,12.78,0,0,0,2.51-3.79l2.34-5Z" transform="translate(-248.77 -385.97)"/></svg>